<?xml version="1.0" encoding="UTF-8"?>
<svg version="1.1" xmlns="http://www.w3.org/2000/svg" width="1680" height="410" >
<path d="M0 0 C441.54 0 883.08 0 1338 0 C1338 138.6 1338 277.2 1338 420 C896.46 420 454.92 420 0 420 C0 281.4 0 142.8 0 0 Z " fill="#FEFEFE" transform="translate(0,0)"/>
<path d="M0 0 C6.42176084 1.82415235 11.13889241 1.18458356 17.52026367 -0.64086914 C27.16483338 -3.36128982 36.00503921 -4.26265916 46.00634766 -4.09912109 C48.31848293 -4.06240499 50.62900787 -4.05810539 52.94140625 -4.05859375 C65.82377796 -4.00034008 78.20319998 -2.94955624 90.375 1.5625 C91.23230713 1.87405029 92.08961426 2.18560059 92.97290039 2.5065918 C109.20886471 8.55099661 125.75449888 18.52533356 133.78125 34.48046875 C136.62125142 41.20969434 137.92778639 47.02479175 137.1875 54.3125 C137.90679687 54.57933594 138.62609375 54.84617188 139.3671875 55.12109375 C150.80591578 59.95324351 163.09412733 69.06651725 170.1875 79.3125 C170.4375 82 170.4375 82 169.1875 84.3125 C164.36483759 88.29451483 160.82181112 88.99123803 154.8125 88.875 C154.02955566 88.86766846 153.24661133 88.86033691 152.43994141 88.8527832 C143.46616889 88.55907967 135.6305593 85.83552114 127.31274414 82.57836914 C119.06659966 79.39209956 110.5265214 77.25202081 101.97705078 75.04248047 C100.2579771 74.5926266 98.54195207 74.13067624 96.83154297 73.64892578 C72.22197496 66.71766273 41.98764235 67.13876529 19.2421875 79.45703125 C14.90354729 82.09239455 10.98211192 84.94459143 7.1875 88.3125 C6.58679688 88.82039063 5.98609375 89.32828125 5.3671875 89.8515625 C-0.36029997 95.06537396 -4.13002798 101.56386926 -7.8125 108.3125 C-8.34617187 109.27671875 -8.87984375 110.2409375 -9.4296875 111.234375 C-14.64527676 122.37275206 -15.33315915 137.48897513 -11.375 149.17578125 C-7.41445113 159.24710586 -7.41445113 159.24710586 0.1875 166.3125 C0.1875 166.9725 0.1875 167.6325 0.1875 168.3125 C-7.24628943 168.64702052 -13.01127155 168.45152852 -19.8125 165.3125 C-20.02459473 171.19812879 -19.42459008 176.15862963 -17.8125 181.8125 C-17.59102295 182.59077148 -17.3695459 183.36904297 -17.14135742 184.17089844 C-10.6564604 205.75074476 3.17505092 226.17744712 22.8125 237.6171875 C30.17501086 241.31548578 38.88486716 244.8604485 47.1875 243.3125 C49.22972558 241.82027778 50.97146517 240.15731971 52.78125 238.390625 C55.749166 235.82742481 58.89910072 233.97064469 62.3125 232.0625 C62.89854004 231.73378906 63.48458008 231.40507812 64.08837891 231.06640625 C71.4074921 227.02201328 78.0941315 224.30016607 86.1875 222.3125 C87.25226563 222.03019531 88.31703125 221.74789062 89.4140625 221.45703125 C98.78745961 219.16216506 107.6139754 218.99956397 117.1875 219.3125 C117.1875 219.9725 117.1875 220.6325 117.1875 221.3125 C115.27828184 222.74820777 113.37053555 224.06916568 111.375 225.375 C97.88332474 234.47321803 86.48437725 243.42186824 81.1875 259.3125 C81.06610509 261.76862954 81.01207808 264.22840196 81 266.6875 C80.98582031 267.99460937 80.97164062 269.30171875 80.95703125 270.6484375 C81.17345704 274.08924076 81.80231346 276.21362418 83.1875 279.3125 C83.1875 280.3025 83.1875 281.2925 83.1875 282.3125 C70.54829225 283.67972199 58.42378751 279.06851892 48.51953125 271.47265625 C46.1875 269.3125 46.1875 269.3125 44.02734375 266.21484375 C40.62653759 262.02655179 36.01816356 261.70443195 30.9375 260.8125 C2.90298355 255.14101699 -22.65113145 242.62737795 -43.8125 223.3125 C-44.53695312 222.65894531 -45.26140625 222.00539063 -46.0078125 221.33203125 C-55.33408607 212.47773509 -63.26333614 201.89902396 -68.8125 190.3125 C-69.32425781 189.2503125 -69.83601563 188.188125 -70.36328125 187.09375 C-71.88986262 183.85118511 -73.36002399 180.58882372 -74.8125 177.3125 C-75.18375 176.51585937 -75.555 175.71921875 -75.9375 174.8984375 C-82.58644434 159.78247811 -83.99790856 142.98069166 -84.0625 126.6875 C-84.083125 125.41003906 -84.10375 124.13257813 -84.125 122.81640625 C-84.16099103 113.93561847 -82.97576338 105.91159299 -80.8125 97.3125 C-80.59996582 96.36971191 -80.38743164 95.42692383 -80.16845703 94.45556641 C-75.47541502 73.79015859 -62.09482595 49.60675148 -45.9296875 35.8125 C-44.58998159 34.36094369 -44.58998159 34.36094369 -44.984375 32.359375 C-49.39607149 21.4549931 -60.4532473 15.19039222 -70.5234375 10.22265625 C-72.9398305 9.261872 -75.25236241 8.74220507 -77.8125 8.3125 C-76.8125 5.3125 -76.8125 5.3125 -74.8359375 4.28515625 C-50.60341911 -4.04253812 -25.00855193 -7.47855188 0 0 Z " fill="#0F8AEF" transform="translate(134.8125,76.6875)"/>
<path d="M0 0 C30.69 0 61.38 0 93 0 C93 6.41677248 91.87638253 8.20562466 88 12.75 C87.49597656 13.36488281 86.99195313 13.97976562 86.47265625 14.61328125 C85.45759811 15.85046407 84.4368379 17.08299273 83.41015625 18.31054688 C81.5718672 20.51292919 79.78478738 22.75414254 78 25 C77.05253906 26.18142578 77.05253906 26.18142578 76.0859375 27.38671875 C67.44595341 38.21096848 58.98093283 49.16988988 50.57421875 60.17578125 C45.61980817 66.65249122 40.57860837 73.0505494 35.46801758 79.40478516 C32.19635293 83.48056092 28.98266013 87.59488138 25.8125 91.75 C21.90637395 96.86967977 17.86859344 101.83755364 13.71484375 106.7578125 C11.82859225 108.97232173 11.82859225 108.97232173 11 112 C38.39 112 65.78 112 94 112 C94 114.31 94 116.62 94 119 C62.32 119 30.64 119 -2 119 C-2 112.25146379 -2 112.25146379 0.7109375 108.93359375 C1.58117554 107.84473877 1.58117554 107.84473877 2.46899414 106.73388672 C3.09797607 105.9760791 3.72695801 105.21827148 4.375 104.4375 C5.67356542 102.82453132 6.9717407 101.21124846 8.26953125 99.59765625 C8.90971191 98.81148926 9.54989258 98.02532227 10.20947266 97.21533203 C12.55557585 94.31261314 14.8094409 91.35052763 17.0625 88.375 C21.32958842 82.81166962 25.74092639 77.37635107 30.17724609 71.94750977 C35.24863484 65.72761383 40.1392784 59.38565387 45 53 C61.13884002 31.90330832 61.13884002 31.90330832 69.55078125 21.6640625 C70.44253052 20.57702026 70.44253052 20.57702026 71.35229492 19.46801758 C72.51380218 18.0556849 73.67919654 16.64653801 74.84887695 15.2409668 C75.37570068 14.60070557 75.90252441 13.96044434 76.4453125 13.30078125 C76.91469238 12.73528564 77.38407227 12.16979004 77.86767578 11.5871582 C79.20333905 9.87922151 79.20333905 9.87922151 80 7 C53.6 7 27.2 7 0 7 C0 4.69 0 2.38 0 0 Z " fill="#9BFAFA" transform="translate(1074,211)"/>
<path d="M0 0 C7.36487858 -0.05096602 14.72971119 -0.08584484 22.09472656 -0.10986328 C24.5970225 -0.11988281 27.09930684 -0.13350213 29.6015625 -0.15087891 C33.21096673 -0.17530561 36.82021531 -0.18652394 40.4296875 -0.1953125 C41.53738495 -0.20563507 42.6450824 -0.21595764 43.78634644 -0.22659302 C59.17544453 -0.22878543 70.29074908 3.86390035 82 14 C90.45308537 23.93195518 90.76027496 34.16667349 90.1953125 46.65234375 C89.78441419 51.59134139 88.33043587 55.66787313 86 60 C85.59910156 60.79535156 85.19820312 61.59070313 84.78515625 62.41015625 C81.05979553 68.87824631 75.70787588 72.83448554 69 76 C65.65625 76.6875 65.65625 76.6875 63 77 C63 77.99 63 78.98 63 80 C63.99 80.33 64.98 80.66 66 81 C67.26757812 82.43603516 67.26757812 82.43603516 68.53125 84.2890625 C69.24498779 85.32039307 69.24498779 85.32039307 69.97314453 86.37255859 C70.47700684 87.11586426 70.98086914 87.85916992 71.5 88.625 C72.56904035 90.17275445 73.63938197 91.71961082 74.7109375 93.265625 C75.25459961 94.05259766 75.79826172 94.83957031 76.35839844 95.65039062 C79.33555176 99.91156308 82.43174319 104.08436692 85.52148438 108.26416016 C91 115.68487136 91 115.68487136 91 119 C84.12058429 119.86178426 84.12058429 119.86178426 81.34667969 117.72851562 C79.71887604 115.8095339 78.2901102 113.83099053 76.875 111.75 C76.33584961 111.00234375 75.79669922 110.2546875 75.24121094 109.484375 C73.46642563 107.0080251 71.73276395 104.50590092 70 102 C68.69683642 100.14996728 67.3921229 98.30102545 66.0859375 96.453125 C63.09615049 92.21251641 60.13380543 87.95397195 57.19238281 83.6796875 C56.10632145 82.05056163 56.10632145 82.05056163 55 81 C53.52749355 80.87767356 52.04934289 80.8222544 50.57202148 80.79467773 C49.16067177 80.7647599 49.16067177 80.7647599 47.72080994 80.73423767 C46.69790359 80.71752518 45.67499725 80.70081268 44.62109375 80.68359375 C43.57929459 80.66281265 42.53749542 80.64203156 41.46412659 80.62062073 C38.12198753 80.55500943 34.77976715 80.49618669 31.4375 80.4375 C29.17772582 80.39432578 26.91795999 80.35071186 24.65820312 80.30664062 C19.10555103 80.19848533 13.55284109 80.09949811 8 80 C8 92.87 8 105.74 8 119 C5.36 119 2.72 119 0 119 C0 103.82 0 88.64 0 73 C5.36958984 72.97873047 5.36958984 72.97873047 10.84765625 72.95703125 C14.3628035 72.92630832 17.8777678 72.88724609 21.39282227 72.84741211 C23.81235152 72.8243935 26.23197868 72.80987482 28.65161133 72.80444336 C52.99377515 73.06638702 52.99377515 73.06638702 74 62 C75.05287814 60.36622358 76.0727001 58.70818403 77 57 C77.66 57 78.32 57 79 57 C79.144375 55.88625 79.28875 54.7725 79.4375 53.625 C80 50 80 50 81 48 C81.72299893 37.65555384 81.58327846 27.98865989 74.8125 19.6875 C65.43245874 10.01433245 54.95112912 8.87582827 41.86468506 8.62094116 C40.28424408 8.60361435 40.28424408 8.60361435 38.671875 8.5859375 C37.55685608 8.56657135 36.44183716 8.5472052 35.29302979 8.5272522 C31.77876104 8.46811653 28.26445835 8.42133814 24.75 8.375 C22.34764303 8.33675933 19.94529887 8.29770419 17.54296875 8.2578125 C11.69542744 8.16247047 5.84780703 8.07723591 0 8 C0 5.36 0 2.72 0 0 Z " fill="#98FDFD" transform="translate(792,211)"/>
<path d="M0 0 C7.20415191 -0.0510264 14.40825659 -0.08586977 21.61254883 -0.10986328 C24.05950665 -0.11987393 26.50645265 -0.13348649 28.95336914 -0.15087891 C32.48586966 -0.1753452 36.01821097 -0.18653282 39.55078125 -0.1953125 C40.63144363 -0.20563507 41.71210602 -0.21595764 42.82551575 -0.22659302 C58.61539453 -0.22888598 69.98302064 3.60790195 82 14 C90.94306179 23.90180831 90.73035337 35.17627305 90.18798828 47.91503906 C89.78275415 52.40945399 88.21900811 56.12444069 86 60 C85.4225 61.051875 84.845 62.10375 84.25 63.1875 C76.29549461 73.13063174 66.58915307 78.45247737 54 80 C46.0744063 80.47895188 38.12228591 80.2844069 30.1875 80.1875 C28.03060832 80.17242364 25.87370643 80.15874047 23.71679688 80.14648438 C18.47740139 80.11629193 13.23944854 80.05752953 8 80 C8 92.87 8 105.74 8 119 C5.36 119 2.72 119 0 119 C0 103.82 0 88.64 0 73 C22.9375 72.75 22.9375 72.75 30.06225586 72.70214844 C53.67326011 72.65220019 53.67326011 72.65220019 74 62 C75.90038049 59.31345292 75.90038049 59.31345292 77 57 C77.66 57 78.32 57 79 57 C81.97346837 46.40701892 82.7793113 34.77135851 78.46875 24.44140625 C75.81857079 20.03618816 72.14716825 16.96526026 68 14 C67.26652344 13.4740625 66.53304688 12.948125 65.77734375 12.40625 C58.13256691 8.53547692 49.70163511 8.67137594 41.30859375 8.5859375 C39.5298159 8.55688828 39.5298159 8.55688828 37.71510315 8.5272522 C33.95597352 8.46783806 30.19681263 8.42122402 26.4375 8.375 C23.87694033 8.33678511 21.31639304 8.29773137 18.75585938 8.2578125 C12.5040167 8.16216809 6.2520985 8.07701058 0 8 C0 5.36 0 2.72 0 0 Z " fill="#9BFCFC" transform="translate(966,211)"/>
<path d="M0 0 C4.94121827 -0.8668804 4.94121827 -0.8668804 8 0 C9.73828125 1.87939453 9.73828125 1.87939453 11.375 4.3828125 C11.97707275 5.29498535 12.57914551 6.2071582 13.19946289 7.14697266 C15.99194613 11.57178068 18.74684556 16.01240252 21.4375 20.5 C22.65301532 22.51209978 23.86918854 24.52380223 25.0859375 26.53515625 C25.71854492 27.58203613 26.35115234 28.62891602 27.00292969 29.70751953 C30.49640655 35.46705852 34.02958344 41.20210033 37.5625 46.9375 C38.22886475 48.0203125 38.89522949 49.103125 39.58178711 50.21875 C40.53323608 51.76369141 40.53323608 51.76369141 41.50390625 53.33984375 C42.10090332 54.31034668 42.69790039 55.28084961 43.31298828 56.28076172 C44.84174625 58.74491603 46.400576 61.18724298 47.96484375 63.62890625 C50 67 50 67 50 69 C54.01260333 67.66246556 54.27181835 66.13990755 56.25 62.4375 C59.97142789 55.65860732 64.00270875 49.10428259 68.125 42.5625 C73.96134864 33.29015351 79.70382165 23.96741459 85.34423828 14.57446289 C86.87653436 12.03675508 88.42837095 9.51350762 90 7 C90.44722412 6.27820557 90.89444824 5.55641113 91.35522461 4.81274414 C94.39774723 0.18393409 94.39774723 0.18393409 97.23828125 -0.68359375 C99.15885417 -0.45572917 101.07942708 -0.22786458 103 0 C102.37797908 3.25116277 101.23534332 5.39125672 99.33984375 8.08984375 C95.88195613 13.13418263 92.71729415 18.32481439 89.5625 23.5625 C83.96593514 32.81233621 78.28043326 42.00140942 72.50219727 51.13891602 C71.31989676 53.01766515 70.1535407 54.90652154 69.00146484 56.80395508 C67.51200809 59.1823984 65.98304653 61.44891764 64.36181641 63.7331543 C56.42318201 75.36109686 55.59866725 85.22799595 55.875 99.0625 C55.87694775 101.00846431 55.87436874 102.95443859 55.8671875 104.90039062 C55.85946899 109.60200912 55.91230271 114.2992333 56 119 C53.03 119 50.06 119 47 119 C47.06453369 117.27221313 47.06453369 117.27221313 47.13037109 115.50952148 C48.28638512 83.78756624 48.28638512 83.78756624 33.85766602 56.35986328 C28.88215931 50.03928925 24.89941943 42.9175802 20.8125 36 C17.19549502 29.92083144 13.4664096 23.91726225 9.6875 17.9375 C9.18387939 17.14021484 8.68025879 16.34292969 8.16137695 15.52148438 C7.67886475 14.76029297 7.19635254 13.99910156 6.69921875 13.21484375 C6.2407959 12.49151855 5.78237305 11.76819336 5.31005859 11.02294922 C4.1261214 9.1947525 2.89435375 7.41224981 1.64453125 5.62890625 C0 3 0 3 0 0 Z " fill="#9FF9FA" transform="translate(1177,211)"/>
<path d="M0 0 C31.35 0 62.7 0 95 0 C95 2.31 95 4.62 95 7 C80.81 7 66.62 7 52 7 C52 44.29 52 81.58 52 120 C49.03 120 46.06 120 43 120 C43 83.04 43 46.08 43 8 C28.81 8 14.62 8 0 8 C0 5.36 0 2.72 0 0 Z " fill="#5C84EC" transform="translate(274,211)"/>
<path d="M0 0 C31.35 0 62.7 0 95 0 C95 2.31 95 4.62 95 7 C80.81 7 66.62 7 52 7 C52 43.96 52 80.92 52 119 C49.03 119 46.06 119 43 119 C43 82.04 43 45.08 43 7 C28.81 7 14.62 7 0 7 C0 4.69 0 2.38 0 0 Z " fill="#5BB2FA" transform="translate(675,211)"/>
<path d="M0 0 C2.97 0 5.94 0 9 0 C9 36.96 9 73.92 9 112 C31.77 112 54.54 112 78 112 C78 114.64 78 117.28 78 120 C52.26 120 26.52 120 0 120 C0 80.4 0 40.8 0 0 Z " fill="#609FF4" transform="translate(505,211)"/>
<path d="M0 0 C2.97 0 5.94 0 9 0 C9 36.96 9 73.92 9 112 C31.77 112 54.54 112 78 112 C78 114.31 78 116.62 78 119 C52.26 119 26.52 119 0 119 C0 79.73 0 40.46 0 0 Z " fill="#59A5F8" transform="translate(606,211)"/>
<path d="M0 0 C2.97 0 5.94 0 9 0 C9 39.6 9 79.2 9 120 C6.03 120 3.06 120 0 120 C0 80.4 0 40.8 0 0 Z " fill="#9FFBFC" transform="translate(915,211)"/>
<path d="M0 0 C25.74 0 51.48 0 78 0 C78 2.64 78 5.28 78 8 C52.26 8 26.52 8 0 8 C0 5.36 0 2.72 0 0 Z " fill="#6194F4" transform="translate(391,266)"/>
<path d="M0 0 C25.74 0 51.48 0 78 0 C78 2.64 78 5.28 78 8 C52.26 8 26.52 8 0 8 C0 5.36 0 2.72 0 0 Z " fill="#4D87F1" transform="translate(391,211)"/>
<path d="M0 0 C25.41 0 50.82 0 77 0 C77 2.31 77 4.62 77 7 C51.59 7 26.18 7 0 7 C0 4.69 0 2.38 0 0 Z " fill="#5189F2" transform="translate(391,323)"/>
<path d="M0 0 C25.74 0 51.48 0 78 0 C78 2.64 78 5.28 78 8 C52.26 8 26.52 8 0 8 C0 7.67 0 7.34 0 7 C25.08 7 50.16 7 76 7 C76 5.35 76 3.7 76 2 C75.35377686 2.0707373 74.70755371 2.14147461 74.04174805 2.21435547 C63.10471693 3.23832432 52.1696102 3.15121119 41.1940918 3.13037109 C37.78234538 3.1249521 34.3707271 3.13037314 30.95898438 3.13671875 C28.79166638 3.13605897 26.62434846 3.1347799 24.45703125 3.1328125 C23.43632034 3.13483673 22.41560944 3.13686096 21.3639679 3.13894653 C20.4250621 3.13579437 19.48615631 3.13264221 18.51879883 3.12939453 C17.69197098 3.12859894 16.86514313 3.12780334 16.01325989 3.12698364 C14 3 14 3 12 2 C9.9625237 1.77141886 7.91959697 1.58975722 5.875 1.4375 C4.23144531 1.31181641 4.23144531 1.31181641 2.5546875 1.18359375 C1.71164062 1.12300781 0.86859375 1.06242188 0 1 C0 0.67 0 0.34 0 0 Z " fill="#769FF1" transform="translate(391,211)"/>
<path d="M0 0 C0.77923828 0.00451172 1.55847656 0.00902344 2.36132812 0.01367188 C4.26175268 0.02533092 6.16213706 0.04326123 8.0625 0.0625 C8.0625 0.7225 8.0625 1.3825 8.0625 2.0625 C6.4125 2.7225 4.7625 3.3825 3.0625 4.0625 C3.0625 3.0725 3.0625 2.0825 3.0625 1.0625 C-6.3425 1.5575 -6.3425 1.5575 -15.9375 2.0625 C-15.9375 1.7325 -15.9375 1.4025 -15.9375 1.0625 C-10.57260405 0.15766363 -5.43432543 -0.06053662 0 0 Z " fill="#58AFF8" transform="translate(243.9375,295.9375)"/>
</svg>
